<?xml version="1.0" encoding="UTF-8" standalone="no"?>
<!-- Created with Inkscape (http://www.inkscape.org/) -->

<svg
   version="1.1"
   id="svg1"
   width="1024"
   height="1024"
   viewBox="0 0 1024 1024"
   sodipodi:docname="deneme.svg"
   inkscape:version="1.4.2 (ebf0e940, 2025-05-08)"
   inkscape:export-filename="deneme.svg"
   inkscape:export-xdpi="96"
   inkscape:export-ydpi="96"
   xmlns:inkscape="http://www.inkscape.org/namespaces/inkscape"
   xmlns:sodipodi="http://sodipodi.sourceforge.net/DTD/sodipodi-0.dtd"
   xmlns="http://www.w3.org/2000/svg"
   xmlns:svg="http://www.w3.org/2000/svg">
  <defs
     id="defs1" />
  <sodipodi:namedview
     id="namedview1"
     pagecolor="#ffffff"
     bordercolor="#111111"
     borderopacity="1"
     inkscape:showpageshadow="0"
     inkscape:pageopacity="0"
     inkscape:pagecheckerboard="1"
     inkscape:deskcolor="#d1d1d1"
     inkscape:zoom="0.39461208"
     inkscape:cx="886.947"
     inkscape:cy="473.88311"
     inkscape:window-width="1488"
     inkscape:window-height="761"
     inkscape:window-x="0"
     inkscape:window-y="40"
     inkscape:window-maximized="0"
     inkscape:current-layer="g1" />
  <g
     inkscape:groupmode="layer"
     inkscape:label="Image"
     id="g1">
    <path
       style="fill:#000000;stroke-width:1.56224"
       d="m 466.1519,874.13532 c -2.60167,-0.64864 -8.6328,-2.73048 -13.40252,-4.62631 C 419.39229,856.25052 287.46434,807.81543 249.59736,794.9252 115.39383,749.24131 102.32134,743.95453 96.861005,733.1558 l -3.48134,-6.88495 -0.283818,-203.87686 -0.283818,-203.87685 2.659688,-3.98493 c 4.112047,-6.16065 7.886983,-7.37822 86.074043,-27.76237 40.32577,-10.51336 104.53954,-27.47932 142.69726,-37.70218 68.9264,-18.4661 154.44338,-41.13855 174.41909,-46.24237 l 10.43552,-2.66629 14.00436,3.16808 c 7.70232,1.74246 39.90272,10.18417 71.55627,18.75936 110.30847,29.8834 242.62209,64.16277 294.06674,76.18586 30.27592,7.07574 35.82903,9.12319 39.44736,14.54418 l 2.54775,3.81702 0.17986,203.27082 0.1801,203.2708 -2.64877,4.95055 c -1.45698,2.72279 -4.95582,6.65185 -7.77524,8.73121 l -5.12606,3.78069 -29.95853,9.37 c -30.7619,9.62127 -166.61916,50.98576 -214.44008,65.29066 -14.74276,4.41007 -51.28429,15.68191 -81.20342,25.04856 -111.82056,35.00711 -115.19452,35.92812 -123.77607,33.78853 z m 64.34637,-94.22086 c 8.29409,-2.4207 16.95843,-5.6093 19.25388,-7.0858 l 4.17354,-2.68449 2.23349,-5.24742 2.23349,-5.24741 V 603.93763 448.22592 l -1.81282,-3.38093 c -3.7158,-6.92987 -8.3261,-7.25849 -28.93615,-2.0625 -16.50274,4.16045 -20.46973,5.99077 -23.21913,10.71298 l -2.00707,3.44722 -0.42998,160.03493 -0.42999,160.03494 2.43721,3.65158 2.43736,3.65158 h 4.49284 c 2.4711,0 11.27907,-1.98058 19.57333,-4.40126 z M 415.6954,624.86434 V 467.77773 l -1.14331,-3.48199 -1.14331,-3.48198 -4.94505,-2.95215 c -5.46917,-3.2651 -79.1347,-27.53471 -97.30267,-32.05702 l -11.50502,-2.86385 -1.44936,2.29627 -1.4492,2.29627 0.9112,156.33417 0.91122,156.33417 2.19912,1.72619 c 1.20937,0.9494 12.66,5.29748 25.44567,9.66239 12.78552,4.36493 37.08269,13.09867 53.9935,19.4083 16.9108,6.30965 31.81124,11.35515 33.11206,11.21225 l 2.36515,-0.25982 z m -80.49197,18.39348 c -1.77687,-0.84737 -4.2035,-3.06397 -5.39254,-4.92579 l -2.16191,-3.3851 -0.73209,-32.15366 -0.73209,-32.15367 2.8213,-3.06022 2.82116,-3.06022 h 3.77572 c 2.07676,0 5.76938,1.01197 8.2058,2.2488 l 4.42992,2.24881 1.66996,4.32961 1.66979,4.32962 0.91799,30.83481 0.91783,30.8348 -2.61018,2.83122 -2.61002,2.83121 -4.88008,-0.10479 c -2.68413,-0.0576 -6.33387,-0.79806 -8.11056,-1.64545 z m 292.56692,106.0686 c 16.94486,-4.55862 21.52425,-6.57378 26.02024,-11.45022 l 3.14991,-3.4163 0.39672,-155.78509 0.39655,-155.78511 -2.00691,-3.84395 -2.00691,-3.84394 -3.917,-1.35226 -3.91683,-1.35226 -18.8887,5.10229 -18.88871,5.10228 -3.5717,3.50625 -3.57168,3.50625 -0.39419,70.8851 c -0.2168,38.9868 -0.22611,110.58778 -0.0205,159.11327 l 0.37369,88.2282 3.34874,2.70877 c 4.36132,3.52792 5.75693,3.44934 23.49728,-1.32328 z m -369.34987,-181.15009 0.40175,-156.50437 -1.97852,-1.53345 c -1.08813,-0.84341 -23.15086,-8.28536 -49.02841,-16.53768 l -47.04989,-15.00421 -3.4066,0.47647 -3.40644,0.47644 0.082,153.66331 0.082,153.6633 3.07106,2.88729 3.07123,2.88731 46.51457,16.37077 c 25.58302,9.00393 47.57889,16.21066 48.87972,16.01498 l 2.36515,-0.3558 z m -48.88178,32.88863 -2.75382,-2.05234 -0.72168,-4.47685 c -0.39703,-2.46227 -1.13653,-17.11196 -1.64331,-32.55487 l -0.92146,-28.07801 2.53875,-2.49229 2.53876,-2.49229 5.0119,0.0237 c 5.86745,0.0277 7.84188,1.10417 10.24282,5.5841 l 1.76093,3.28601 0.17108,30.46739 0.17092,30.46739 -1.88911,2.23442 -1.88897,2.2344 -4.93149,-0.0492 c -2.7122,-0.0271 -6.17068,-0.97277 -7.68532,-2.10157 z m 519.32043,118.26469 c 8.99277,-2.5407 18.13107,-5.92439 20.30733,-7.51933 l 3.95672,-2.89988 0.40177,-156.05952 0.40175,-156.05953 -3.43593,-3.59037 -3.43592,-3.59038 -4.06127,0.009 c -2.23381,0.004 -11.81976,2.07374 -21.30211,4.5972 l -17.24083,4.58808 -2.46873,2.42318 -2.46874,2.42317 -0.41627,156.04286 -0.41627,156.04285 3.29008,4.10598 3.28992,4.10597 h 3.62389 c 1.99318,0 10.98169,-2.07873 19.97461,-4.61941 z m 96.01792,-31.50849 c 15.64907,-4.23355 22.9137,-7.63055 25.17037,-11.77013 l 1.6236,-2.97793 V 519.70786 366.34262 l -5.42738,-2.54071 -5.42754,-2.54074 -18.61813,5.21211 -18.61829,5.2121 -3.54772,3.47475 -3.54773,3.47475 v 153.30881 153.30879 l 3.15354,3.09572 3.15353,3.09573 h 4.34714 c 2.39101,0 10.37337,-1.63024 17.73861,-3.62277 z"
       id="path1" />
  </g>
</svg>
